<?xml version="1.0" standalone="no"?>
<!DOCTYPE svg PUBLIC "-//W3C//DTD SVG 20010904//EN"
 "http://www.w3.org/TR/2001/REC-SVG-20010904/DTD/svg10.dtd">
<svg version="1.0" xmlns="http://www.w3.org/2000/svg"
 width="70.000000pt" height="111.000000pt" viewBox="0 0 70.000000 111.000000"
 preserveAspectRatio="xMidYMid meet">

<g transform="translate(0.000000,111.000000) scale(0.100000,-0.100000)"
fill="#000000" stroke="none">
<path d="M117 1075 c-35 -24 -65 -70 -82 -123 -7 -23 -7 -23 26 -7 34 18 79
16 185 -7 94 -20 163 11 204 93 l20 38 -53 -6 c-38 -4 -69 1 -114 16 -85 29
-139 27 -186 -4z"/>
<path d="M634 1056 c-27 -13 -62 -38 -77 -55 -49 -58 -55 -107 -62 -481 -6
-328 -7 -347 -28 -390 -16 -32 -34 -51 -67 -68 -40 -21 -55 -23 -135 -20 -127
5 -195 47 -195 118 0 17 5 19 44 14 36 -5 47 -3 65 15 23 23 28 70 10 103 -6
11 -26 26 -45 34 -29 12 -39 12 -68 0 -64 -27 -90 -131 -52 -204 61 -118 333
-150 489 -59 56 33 105 91 112 132 3 16 9 201 13 410 8 365 9 382 31 423 12
24 21 46 19 48 -2 2 -26 -7 -54 -20z"/>
<path d="M400 894 c-72 -31 -107 -82 -118 -172 l-7 -57 -43 -6 c-81 -11 -123
-90 -89 -169 l15 -35 10 27 c12 29 56 44 93 33 21 -7 21 -10 17 -164 -4 -117
-10 -167 -23 -199 -20 -49 -16 -59 17 -41 53 28 102 76 121 118 18 41 21 75
27 336 4 180 11 300 18 318 13 31 10 32 -38 11z"/>
</g>
</svg>
